<svg width="512" height="144" viewBox="0 0 512 144" fill="none" xmlns="http://www.w3.org/2000/svg">
  <path d="M70.944 42.048L97.92 69.024L124.896 42.048L142.08 59.232L97.92 103.392L53.76 59.232L70.944 42.048ZM24.576 71.232L41.76 54.048L58.944 71.232L41.76 88.416L24.576 71.232ZM70.944 100.416L97.92 127.392L124.896 100.416L142.08 117.6L97.92 161.76L53.76 117.6L70.944 100.416ZM136.896 71.232L154.08 54.048L171.264 71.232L154.08 88.416L136.896 71.232ZM97.92 42.048L124.896 15.072L97.92 -11.904L70.944 15.072L97.92 42.048Z" fill="#F3BA2F"/>
  <path d="M213.12 51.84H226.56V90.912H213.12V51.84ZM252.288 51.84V90.912H238.848V51.84H252.288ZM259.2 51.84H272.64V79.872C272.64 83.04 275.232 85.632 278.4 85.632C281.568 85.632 284.16 83.04 284.16 79.872V51.84H297.6V90.912H284.16V87.456C283.008 89.472 278.976 92.064 273.792 92.064C265.152 92.064 259.2 86.112 259.2 76.128V51.84ZM301.824 71.376C301.824 60.24 310.752 50.688 323.904 50.688C337.056 50.688 345.984 60.24 345.984 71.376C345.984 82.512 337.056 92.064 323.904 92.064C310.752 92.064 301.824 82.512 301.824 71.376ZM315.264 71.376C315.264 75.696 319.008 79.872 323.904 79.872C328.8 79.872 332.544 75.696 332.544 71.376C332.544 67.056 328.8 62.88 323.904 62.88C319.008 62.88 315.264 67.056 315.264 71.376ZM350.208 51.84H363.648V55.296C364.8 53.28 368.832 50.688 374.016 50.688C382.656 50.688 388.608 56.64 388.608 66.624V90.912H375.168V69.072C375.168 65.904 372.576 63.312 369.408 63.312C366.24 63.312 363.648 65.904 363.648 69.072V90.912H350.208V51.84ZM392.832 71.376C392.832 60.24 401.76 50.688 414.912 50.688C424.32 50.688 431.424 55.296 434.304 62.88L422.208 67.632C421.056 64.464 418.368 62.88 414.912 62.88C410.016 62.88 406.272 67.056 406.272 71.376C406.272 75.696 410.016 79.872 414.912 79.872C418.368 79.872 421.056 78.288 422.208 75.12L434.304 79.872C431.424 87.456 424.32 92.064 414.912 92.064C401.76 92.064 392.832 82.512 392.832 71.376ZM471.36 73.68H447.072C448.224 77.856 452.544 80.16 456.576 80.16C460.608 80.16 463.2 78.576 465.6 76.128L471.36 83.712C467.904 88.32 462.72 92.064 455.424 92.064C442.848 92.064 433.344 82.8 433.344 71.952C433.344 60.528 442.848 50.688 455.04 50.688C466.464 50.688 472.512 59.952 472.512 69.648C472.512 70.8 472.512 72.24 471.36 73.68ZM446.496 65.76H458.976C458.592 61.968 455.904 60.24 452.736 60.24C449.568 60.24 447.072 62.4 446.496 65.76Z" fill="#F3BA2F"/>
</svg> 