<svg width="200" height="60" viewBox="0 0 200 60" fill="none" xmlns="http://www.w3.org/2000/svg">
  <path d="M37.4 30L30 22.6L22.6 30L30 37.4L37.4 30Z" fill="#F3BA2F"/>
  <path d="M49.865 30L42.465 22.6L30 35.065L17.535 22.6L10.135 30L22.6 42.465L30 49.865L42.465 37.4L49.865 30Z" fill="#F3BA2F"/>
  <path d="M42.465 37.4L30 49.865L17.535 37.4L10.135 44.8L30 64.665L49.865 44.8L42.465 37.4Z" fill="#F3BA2F"/>
  <path d="M30 10.135L42.465 22.6L49.865 15.2L30 -4.665L10.135 15.2L17.535 22.6L30 10.135Z" fill="#F3BA2F"/>
  <path d="M68.83 25.6H74.27V29.21H68.83V37.44H64.86V29.21H61.94V25.6H64.86V23.84C64.86 19.66 67.13 17.44 71.36 17.44C72.6 17.44 73.95 17.71 74.98 18.16L73.91 21.74C73.29 21.47 72.6 21.33 72.01 21.33C70.51 21.33 68.83 21.88 68.83 24.33V25.6Z" fill="#F3BA2F"/>
  <path d="M83.05 25.28C82.35 25.28 81.65 25.42 81.09 25.63V37.44H77.12V23.01C78.95 22.05 81.05 21.33 83.37 21.33C84.47 21.33 85.31 21.51 85.91 21.74L84.93 25.4C84.33 25.33 83.69 25.28 83.05 25.28Z" fill="#F3BA2F"/>
  <path d="M93.86 37.95C89.34 37.95 86.28 34.62 86.28 29.66C86.28 24.7 89.34 21.33 93.86 21.33C98.38 21.33 101.44 24.66 101.44 29.62C101.44 34.58 98.38 37.95 93.86 37.95ZM93.86 25.26C91.89 25.26 90.39 26.72 90.39 29.62C90.39 32.52 91.89 33.98 93.86 33.98C95.83 33.98 97.33 32.52 97.33 29.62C97.33 26.72 95.83 25.26 93.86 25.26Z" fill="#F3BA2F"/>
  <path d="M110.22 37.95C105.7 37.95 102.64 34.62 102.64 29.66C102.64 24.7 105.7 21.33 110.22 21.33C114.74 21.33 117.8 24.66 117.8 29.62C117.8 34.58 114.74 37.95 110.22 37.95ZM110.22 25.26C108.25 25.26 106.75 26.72 106.75 29.62C106.75 32.52 108.25 33.98 110.22 33.98C112.19 33.98 113.69 32.52 113.69 29.62C113.69 26.72 112.19 25.26 110.22 25.26Z" fill="#F3BA2F"/>
  <path d="M126.57 37.95C122.05 37.95 119 34.62 119 29.66C119 24.7 122.05 21.33 126.57 21.33C131.1 21.33 134.15 24.66 134.15 29.62C134.15 34.58 131.1 37.95 126.57 37.95ZM126.57 25.26C124.6 25.26 123.11 26.72 123.11 29.62C123.11 32.52 124.6 33.98 126.57 33.98C128.54 33.98 130.04 32.52 130.04 29.62C130.04 26.72 128.54 25.26 126.57 25.26Z" fill="#F3BA2F"/>
  <path d="M152.62 21.33C154.45 21.33 155.81 21.79 156.73 22.19L155.54 26.12C154.66 25.77 153.71 25.4 152.43 25.4C149.49 25.4 147.79 27.4 147.79 29.66C147.79 32.66 149.69 33.98 152.47 33.98C153.67 33.98 154.9 33.57 155.77 33.2L156.73 37.05C155.77 37.58 153.98 37.98 152.06 37.98C146.95 37.98 143.71 34.71 143.71 29.7C143.71 24.69 146.95 21.33 152.62 21.33Z" fill="#F3BA2F"/>
  <path d="M174.36 37.44H170.39V28.12C170.39 26.21 169.62 25.37 168.05 25.37C167.28 25.37 166.43 25.67 165.89 26.12V37.44H161.96V23.05C163.87 22 166.39 21.33 168.92 21.33C172.77 21.33 174.4 23.33 174.4 26.86V37.44H174.36Z" fill="#F3BA2F"/>
  <path d="M184.41 37.95C181.4 37.95 179.58 36.4 179.58 33.98C179.58 31.03 182.14 29.6 186.73 29.6H187.24V29.03C187.24 26.77 186.11 25.85 184.18 25.85C182.94 25.85 181.55 26.31 180.32 26.91L179.09 23.37C180.74 22.3 182.83 21.37 185.19 21.37C189.36 21.37 191.25 23.51 191.25 28.03V36.58C189.82 37.3 187.31 37.99 184.41 37.99V37.95ZM187.27 32.58V32.4H186.73C184.33 32.4 183.36 33.07 183.36 34.13C183.36 35.19 184.1 35.77 185.42 35.77C186.11 35.77 186.77 35.6 187.27 35.4V32.58Z" fill="#F3BA2F"/>
  <path d="M200.41 37.44H196.44V16.44H200.41V37.44Z" fill="#F3BA2F"/>
</svg> 