<svg width="512" height="144" viewBox="0 0 512 144" fill="none" xmlns="http://www.w3.org/2000/svg">
  <path d="M65.7812 48.376H96.8125L111.875 71.9385L127.062 48.376H158.094L126.5 95.9385L158.094 143.501H127.062L111.875 119.938L96.8125 143.501H65.7812L97.375 95.9385L65.7812 48.376Z" fill="#FF6B00"/>
  <path d="M180.656 48.376H208.594V61.9385H180.656V80.3135H201.531V93.876H180.656V129.938H158.094V48.376H180.656Z" fill="#FF6B00"/>
  <path d="M208.594 111.563V48.376H231.156V111.563C231.156 121.563 237.094 127.501 247.094 127.501C257.094 127.501 262.906 121.563 262.906 111.563V48.376H285.469V111.563C285.469 134.126 270.344 147.063 247.094 147.063C223.844 147.063 208.594 134.126 208.594 111.563Z" fill="#FF6B00"/>
  <path d="M301.281 48.376H329.219V61.9385H301.281V80.3135H322.156V93.876H301.281V129.938H278.719V48.376H301.281Z" fill="#FF6B00"/>
  <path d="M357.156 48.376C376.594 48.376 391.844 63.626 391.844 83.063C391.844 102.501 376.594 117.751 357.156 117.751H344.219V143.501H321.656V48.376H357.156ZM357.156 101.376C364.219 101.376 369.844 93.751 369.844 83.063C369.844 72.376 364.219 64.751 357.156 64.751H344.219V101.376H357.156Z" fill="#FF6B00"/>
  <path d="M407.656 143.501H385.094V48.376H407.656V143.501Z" fill="#FF6B00"/>
</svg> 