<svg width="512" height="144" viewBox="0 0 512 144" fill="none" xmlns="http://www.w3.org/2000/svg">
  <path d="M81.208 57.8711H127.824V71.7734H81.208V57.8711Z" fill="#19A5DA"/>
  <path d="M81.208 85.6758H127.824V99.5781H81.208V85.6758Z" fill="#19A5DA"/>
  <path d="M170.536 71.7734V57.8711H142.088V43.9688H170.536V30.0664H142.088V44.1297H128.185V30.0664H84.0232V43.9688H128.185V57.8711H84.0232V71.7734H128.185V85.6758H84.0232V99.5781H128.185V85.8367H142.088V99.5781H170.536V85.6758H142.088V71.7734H170.536Z" fill="#19A5DA"/>
  <path d="M170.536 30.0664H184.439V99.5781H170.536V30.0664Z" fill="#19A5DA"/>
  <path d="M213.048 99.5781H199.145V30.0664H213.048V58.0319C217.435 53.9687 223.431 51.5547 230.236 51.5547C246.36 51.5547 260.263 65.4571 260.263 81.5809C260.263 97.7046 246.36 111.607 230.236 111.607C223.431 111.607 217.435 109.193 213.048 105.13V99.5781ZM246.36 81.5809C246.36 73.2254 239.555 66.4219 231.045 66.4219C222.535 66.4219 215.73 73.2254 215.73 81.5809C215.73 90.0973 222.535 96.9008 231.045 96.9008C239.555 96.9008 246.36 90.0973 246.36 81.5809Z" fill="#19A5DA"/>
  <path d="M282.057 99.5781H268.154V54.4492H282.057V99.5781ZM282.057 43.9688H268.154V30.0664H282.057V43.9688Z" fill="#19A5DA"/>
  <path d="M338.177 99.5781H324.274V78.6863C324.274 71.7734 318.439 66.2609 311.795 66.2609C305.152 66.2609 299.479 71.6125 299.479 78.6863V99.5781H285.576V54.4492H299.479V59.48C303.704 54.6101 309.862 51.5547 316.828 51.5547C329.829 51.5547 338.177 62.0844 338.177 74.5075V99.5781Z" fill="#19A5DA"/>
  <path d="M359.16 99.5781H345.257V54.4492H359.16V99.5781ZM359.16 43.9687H345.257V30.0664H359.16V43.9687Z" fill="#19A5DA"/>
  <path d="M392.744 99.5781C379.903 99.5781 370.583 90.5801 370.583 77.3586V54.4492H384.486V77.1976C384.486 82.9309 388.034 86.4645 392.744 86.4645C397.454 86.4645 401.163 82.9309 401.163 77.1976V54.4492H415.066V77.5195C415.066 90.5801 405.745 99.5781 392.744 99.5781Z" fill="#19A5DA"/>
  <path d="M445.599 99.5781H431.696V30.0664H445.599V99.5781Z" fill="#19A5DA"/>
</svg> 