<svg width="512" height="144" viewBox="0 0 512 144" fill="none" xmlns="http://www.w3.org/2000/svg">
  <path d="M64.4929 81.3855C55.5126 81.3855 48.1924 73.9733 48.1924 64.8755C48.1924 55.7778 55.5126 48.3655 64.4929 48.3655C73.4731 48.3655 80.7933 55.7778 80.7933 64.8755C80.7933 73.9733 73.4731 81.3855 64.4929 81.3855Z" fill="#0C36B5"/>
  <path d="M125.292 64.8755C125.292 73.9733 117.972 81.3855 108.992 81.3855C100.011 81.3855 92.6912 73.9733 92.6912 64.8755C92.6912 55.7778 100.011 48.3655 108.992 48.3655C117.972 48.3655 125.292 55.7778 125.292 64.8755Z" fill="#0C36B5"/>
  <path d="M114.692 34.9755L96.9917 52.7833L79.2915 34.9755L96.9917 17.1678L114.692 34.9755Z" fill="#0C36B5"/>
  <path d="M114.692 94.7756L96.9917 112.583L79.2915 94.7756L96.9917 76.9678L114.692 94.7756Z" fill="#0C36B5"/>
  <path d="M76.4914 64.8755L64.4929 76.9678L52.4944 64.8755L64.4929 52.7833L76.4914 64.8755Z" fill="#0C36B5"/>
  <path d="M121.492 64.8755L109.493 76.9678L97.4946 64.8755L109.493 52.7833L121.492 64.8755Z" fill="#0C36B5"/>
  <path d="M165.139 73.9733C165.139 78.3022 169.339 81.3855 175.139 81.3855C180.939 81.3855 185.139 78.3022 185.139 73.9733V55.7778H195.139V73.9733C195.139 84.0711 186.739 91.4833 175.139 91.4833C163.539 91.4833 155.139 84.0711 155.139 73.9733V55.7778H165.139V73.9733Z" fill="#0C36B5"/>
  <path d="M207.138 55.7778H227.138C234.338 55.7778 239.138 60.1066 239.138 66.1755C239.138 72.2444 234.338 76.5733 227.138 76.5733H217.138V91.4833H207.138V55.7778ZM226.738 67.74C227.938 67.74 229.138 66.6711 229.138 65.6022C229.138 64.5333 227.938 63.4644 226.738 63.4644H217.138V67.74H226.738Z" fill="#0C36B5"/>
  <path d="M260.338 55.7778H270.338V83.5233H290.338V91.4833H260.338V55.7778Z" fill="#0C36B5"/>
  <path d="M312.637 91.4833H302.637V55.7778H312.637V91.4833Z" fill="#0C36B5"/>
  <path d="M335.338 73.9733C335.338 78.3022 339.538 81.3855 345.338 81.3855C351.138 81.3855 355.338 78.3022 355.338 73.9733V55.7778H365.338V73.9733C365.338 84.0711 356.938 91.4833 345.338 91.4833C333.738 91.4833 325.338 84.0711 325.338 73.9733V55.7778H335.338V73.9733Z" fill="#0C36B5"/>
  <path d="M379.938 55.7778H389.938V79.2478C389.938 80.8533 391.338 82.4589 392.938 82.4589C394.538 82.4589 395.938 80.8533 395.938 79.2478V55.7778H405.938V79.2478C405.938 86.1389 400.138 91.4833 392.938 91.4833C385.738 91.4833 379.938 86.1389 379.938 79.2478V55.7778Z" fill="#0C36B5"/>
  <path d="M430.737 55.7778H450.737C459.137 55.7778 465.137 61.9278 465.137 70.0322C465.137 78.1367 459.137 84.2867 450.737 84.2867H440.737V91.4833H430.737V55.7778ZM450.337 76.04C452.137 76.04 455.137 74.4345 455.137 70.0322C455.137 65.6299 452.137 64.0244 450.337 64.0244H440.737V76.04H450.337Z" fill="#0C36B5"/>
</svg> 