<svg width="512" height="144" viewBox="0 0 512 144" fill="none" xmlns="http://www.w3.org/2000/svg">
  <path d="M79.0312 41.832H106.969C119.094 41.832 127.656 50.3939 127.656 62.5185C127.656 74.6432 119.094 83.205 106.969 83.205H79.0312V41.832ZM106.406 70.6988C111.656 70.6988 114.406 67.9495 114.406 62.5185C114.406 57.0876 111.656 54.3383 106.406 54.3383H92.2812V70.6988H106.406Z" fill="#EC1C24"/>
  <path d="M139.344 83.205V41.832H152.594V83.205H139.344Z" fill="#EC1C24"/>
  <path d="M182.719 83.205H169.469V41.832H182.719V83.205Z" fill="#EC1C24"/>
  <path d="M216.281 84.3307C201.281 84.3307 191.969 74.3558 191.969 62.5185C191.969 50.6812 201.281 41.832 216.281 41.832C231.281 41.832 240.594 50.6812 240.594 62.5185C240.594 74.3558 231.281 84.3307 216.281 84.3307ZM216.281 54.3383C209.156 54.3383 205.219 57.9499 205.219 62.5185C205.219 67.0872 209.156 70.6988 216.281 70.6988C223.406 70.6988 227.344 67.0872 227.344 62.5185C227.344 57.9499 223.406 54.3383 216.281 54.3383Z" fill="#EC1C24"/>
  <path d="M255.719 83.205H242.469V41.832H255.719V60.0566H275.719V41.832H288.969V83.205H275.719V70.6988H255.719V83.205Z" fill="#EC1C24"/>
  <path d="M306.281 54.3383H293.031V41.832H332.781V54.3383H319.531V83.205H306.281V54.3383Z" fill="#EC1C24"/>
  <path d="M364.344 84.3307C349.344 84.3307 340.031 74.3558 340.031 62.5185C340.031 50.6812 349.344 41.832 364.344 41.832C376.594 41.832 385.344 48.2066 389.156 58.0246L376.469 62.5185C375.344 58.5991 371.406 54.3383 364.344 54.3383C357.281 54.3383 353.281 58.0246 353.281 62.5185C353.281 67.0872 357.281 70.6988 364.344 70.6988C371.406 70.6988 375.344 66.4379 376.469 62.5185L389.156 67.0124C385.344 76.8304 376.594 84.3307 364.344 84.3307Z" fill="#EC1C24"/>
</svg> 