<svg width="512" height="144" viewBox="0 0 512 144" fill="none" xmlns="http://www.w3.org/2000/svg">
  <path d="M89.5986 42.6639H108.889C120.684 42.6639 128.179 50.1591 128.179 62.1688C128.179 74.1785 120.684 81.6738 108.889 81.6738H89.5986V42.6639ZM108.32 72.1075C115.045 72.1075 118.613 68.5389 118.613 62.1688C118.613 55.7988 115.045 52.2301 108.32 52.2301H99.1644V72.1075H108.32Z" fill="#6A1BA5"/>
  <path d="M144.932 42.6639H167.152C173.877 42.6639 178.785 47.5722 178.785 54.5426C178.785 61.3259 173.877 66.3631 167.152 66.3631H154.498V81.6738H144.932V42.6639ZM166.014 56.9229C167.721 56.9229 169.219 55.5177 169.219 53.9835C169.219 52.4492 167.721 51.044 166.014 51.044H154.498V56.9229H166.014Z" fill="#6A1BA5"/>
  <path d="M194.828 42.6639H204.965L217.328 67.3582L229.691 42.6639H239.828V81.6738H230.262V61.1969L218.18 85.8912H216.191L204.394 61.1969V81.6738H194.828V42.6639Z" fill="#6A1BA5"/>
  <path d="M254.9 42.6639H275.727C283.887 42.6639 289.652 48.4382 289.652 55.7988C289.652 63.1594 283.887 68.9338 275.727 68.9338H264.465V81.6738H254.9V42.6639ZM275.156 59.6225C277.713 59.6225 280.086 57.8172 280.086 54.9295C280.086 51.6599 277.713 52.2301 275.156 52.2301H264.465V59.6225H275.156Z" fill="#6A1BA5"/>
  <path d="M305.695 42.6639H315.261V81.6738H305.695V42.6639Z" fill="#6A1BA5"/>
  <path d="M331.304 42.6639H340.869V72.1075H360.73V81.6738H331.304V42.6639Z" fill="#6A1BA5"/>
  <path d="M376.773 42.6639H402.055V51.8024H386.339V56.9229H401.484V66.0917H386.339V72.5354H402.055V81.6738H376.773V42.6639Z" fill="#6A1BA5"/>
  <path d="M416.547 42.6639H426.683L439.046 67.3582L451.409 42.6639H461.546V81.6738H451.98V61.1969L439.898 85.8912H437.909L426.112 61.1969V81.6738H416.547V42.6639Z" fill="#6A1BA5"/>
</svg> 