<svg width="200" height="60" viewBox="0 0 200 60" fill="none" xmlns="http://www.w3.org/2000/svg">
  <path d="M18.6 15.87C14.5 15.87 9.95 17.99 9.95 22.78C9.95 27.06 13.37 28.85 17.2 30.2C20.9 31.5 24.29 32.06 24.29 34.61C24.29 37.2 21.27 38.09 18.88 38.09C15.41 38.09 13.08 36.34 12.68 33.05H8.39C8.7 38.68 12.81 42.08 18.69 42.08C24.13 42.08 28.66 39.01 28.66 34.18C28.66 30.02 25.44 28.06 21.61 26.69C18.1 25.43 14.32 24.94 14.32 22.46C14.32 20.32 17.13 19.86 18.6 19.86C21.51 19.86 23.55 21.01 23.95 23.84H28.24C27.72 18.53 23.73 15.87 18.6 15.87Z" fill="#0C36B5"/>
  <path d="M35.82 16.35H31.52V41.6H35.82V16.35Z" fill="#0C36B5"/>
  <path d="M45.58 24.32C42.67 24.32 40.64 25.74 39.68 27.86V24.81H35.86V41.6H40.16V32.61C40.16 29.75 41.55 28.23 44.22 28.23C46.81 28.23 47.86 29.82 47.86 32.4V41.6H52.16V31.28C52.16 26.97 49.71 24.32 45.58 24.32Z" fill="#0C36B5"/>
  <path d="M66.13 24.32C61.99 24.32 58.52 27.79 58.52 33.21C58.52 38.62 61.99 42.09 66.13 42.09C70.26 42.09 73.73 38.62 73.73 33.21C73.73 27.79 70.26 24.32 66.13 24.32ZM66.13 38.15C64.1 38.15 62.88 36.04 62.88 33.21C62.88 30.37 64.1 28.26 66.13 28.26C68.15 28.26 69.37 30.37 69.37 33.21C69.37 36.04 68.15 38.15 66.13 38.15Z" fill="#0C36B5"/>
  <path d="M82.56 16.35H78.26V41.6H82.56V16.35Z" fill="#0C36B5"/>
  <path d="M93.81 24.32C90.91 24.32 88.88 25.74 87.92 27.86V24.81H84.09V41.6H88.39V32.61C88.39 29.75 89.79 28.23 92.45 28.23C95.04 28.23 96.09 29.82 96.09 32.4V41.6H100.39V31.28C100.39 26.97 97.94 24.32 93.81 24.32Z" fill="#0C36B5"/>
  <path d="M77.54 41.6H73.24V24.81H77.54V41.6Z" fill="#0C36B5"/>
  <path d="M75.39 18.15C73.93 18.15 72.76 19.33 72.76 20.78C72.76 22.24 73.93 23.42 75.39 23.42C76.84 23.42 78.02 22.24 78.02 20.78C78.02 19.33 76.84 18.15 75.39 18.15Z" fill="#0C36B5"/>
</svg> 