<?xml version="1.0" encoding="UTF-8" standalone="no"?>
<svg xmlns="http://www.w3.org/2000/svg" viewBox="0 0 300 100" width="300" height="100">
  <g transform="translate(10, 20)">
    <!-- Binance Symbol -->
    <path d="M30 30l-10 10L10 30 30 10l20 20-10 10zm0 40l-10-10-10 10L30 90l20-20-10-10zM10 50l10-10-10-10-10 10zM50 30l-10 10 10 10 10-10zm-7 10L30 30l-10 10 10 10z" fill="#f3ba2f"/>

    <!-- Binance Text -->
    <g fill="#000000">
      <path d="M90 25h8.8c4.3 0 7.8 3.5 7.8 7.8v0c0 4.3-3.5 7.8-7.8 7.8h-8.8V25z"/>
      <path d="M110 30h5v20h-5V30zm0-8h5v5h-5v-5z"/>
      <path d="M120 30h5v2.5h.1c1-1.5 3.5-3 5.9-3 2.5 0 4.5 1 5.5 3 1.5-2 4-3 6.5-3 5 0 7 3 7 7.5V50h-5V38c0-2-1-3-3-3-2.5 0-3.5 1.5-3.5 3.5V50h-5V38c0-2-1-3-3-3-2.5 0-3.5 1.5-3.5 3.5V50h-5V30z"/>
      <path d="M155 40c0-5.5 4.5-10 10-10s10 4.5 10 10-4.5 10-10 10-10-4.5-10-10zm15 0c0-2.8-2.2-5-5-5s-5 2.2-5 5 2.2 5 5 5 5-2.2 5-5z"/>
      <path d="M180 30h5v2.5h.1c1-1.5 3.5-3 5.9-3 5 0 7 3 7 7.5V50h-5V38c0-2-1-3-3-3-2.5 0-3.5 1.5-3.5 3.5V50h-5V30z"/>
      <path d="M203 40c0-5.5 4.5-10 10.5-10 6 0 10.5 4.5 10.5 10v2h-16c.5 2.5 2.5 4 5 4 2 0 3.5-1 4-2.5h6.5c-1 4.5-5 6.5-10.5 6.5-6 0-10-4.5-10-10zm5-2h11c-.5-2.5-2.5-4-5.5-4s-5 1.5-5.5 4z"/>

      <!-- TR -->
      <path d="M235 25h20v5h-7.5v20h-5V30H235z"/>
      <path d="M260 25h15v5h-5v20h-5V30h-5z"/>
    </g>
  </g>
</svg> 