<svg xmlns="http://www.w3.org/2000/svg" viewBox="0 0 5120 1024" fill="#F3BA2F">
  <path d="M230.997333 512L512 230.997333 793.002667 512 512 793.002667z" />
  <path d="M230.997333 512L512 230.997333 793.002667 512 512 793.002667z" />
  <path d="M0 512L230.997333 281.002667 512 0 793.002667 281.002667 1024 512 793.002667 742.997333 512 1024 230.997333 742.997333z" fill-opacity="0.75" />
  <path d="M512 374.997333L649.002667 512 512 649.002667 374.997333 512z" fill="#FFF" />
  <path d="M1439.978667 490.496l-49.493334-49.493333-49.493333 49.493333L1341.013333 490.496l49.493334 49.493333L1439.978667 490.496z m267.946666 0L1658.88 441.002667l-58.709333 49.493333 49.493333 49.493333 58.261333-49.493333z m-621.226666 0l49.493333-49.493333 49.493333 49.493333-49.493333 49.493333-49.493333-49.493333z m-193.024 40.96l49.493333-49.493333 49.493333 49.493333-49.493333 49.493333L893.674667 531.456z m1192.618666-40.96l-49.493333-49.493333-49.493333 49.493333 49.493333 49.493333 49.493333-49.493333z m267.946667 0l-49.493333-49.493333-58.709334 49.493333 49.493334 49.493333 58.709333-49.493333z m-621.226667 0l49.493334-49.493333 49.493333 49.493333-49.493333 49.493333-49.493334-49.493333z m-193.024 40.96l49.493334-49.493333 49.493333 49.493333-49.493333 49.493333-49.493334-49.493333z m1192.618667-40.96l-49.493334-49.493333-49.493333 49.493333 49.493333 49.493333 49.493334-49.493333z m267.946667 0l-49.493334-49.493333-58.709333 49.493333 49.493333 49.493333 58.709334-49.493333z m-621.226667 0l49.493333-49.493333 49.493334 49.493333-49.493334 49.493333-49.493333-49.493333z m-193.024 40.96l49.493333-49.493333 49.493333 49.493333-49.493333 49.493333-49.493333-49.493333z m1192.618667-40.96l-49.493334-49.493333-49.493333 49.493333 49.493333 49.493333 49.493334-49.493333z m267.946666 0l-49.493333-49.493333-58.709333 49.493333 49.493333 49.493333 58.709333-49.493333z m-621.226666 0l49.493333-49.493333 49.493333 49.493333-49.493333 49.493333-49.493333-49.493333z m-193.024 40.96l49.493333-49.493333 49.493333 49.493333-49.493333 49.493333-49.493333-49.493333z" fill-opacity="0" />
  <path d="M4429.482667 512m-42.496 0a42.496 42.496 0 1 0 84.992 0 42.496 42.496 0 1 0-84.992 0Z" fill="#FFF" />
  <path d="M1536 512m-512 0a512 512 0 1 0 1024 0 512 512 0 1 0-1024 0Z" fill-opacity="0" />
  <path d="M2048 512m-512 0a512 512 0 1 0 1024 0 512 512 0 1 0-1024 0Z" fill-opacity="0" />
  <path d="M2560 512m-512 0a512 512 0 1 0 1024 0 512 512 0 1 0-1024 0Z" fill-opacity="0" />
  <path d="M3072 512m-512 0a512 512 0 1 0 1024 0 512 512 0 1 0-1024 0Z" fill-opacity="0" />
  <path d="M3584 512m-512 0a512 512 0 1 0 1024 0 512 512 0 1 0-1024 0Z" fill-opacity="0" />
  <path d="M4096 512m-512 0a512 512 0 1 0 1024 0 512 512 0 1 0-1024 0Z" fill-opacity="0" />
  <path d="M4608 512m-512 0a512 512 0 1 0 1024 0 512 512 0 1 0-1024 0Z" fill-opacity="0" />
</svg> 