<?xml version="1.0" encoding="UTF-8" standalone="no"?>
<svg xmlns="http://www.w3.org/2000/svg" width="300" height="80" viewBox="0 0 300 80">
  <g>
    <!-- Green background with rounded corners -->
    <rect x="20" y="15" width="260" height="50" fill="#28A745" rx="8" ry="8"/>
    
    <!-- Bitcoin symbol in white -->
    <g transform="translate(40, 28)" fill="white">
      <path d="M24,12 C24,7 20,6 17,6 L17,2 L13,2 L13,6 L11,6 L11,2 L7,2 L7,6 L0,6 L0,10 L4,10 L4,26 L0,26 L0,30 L7,30 L7,34 L11,34 L11,30 L13,30 L13,34 L17,34 L17,30 C23,30 26,27 26,22 C26,18 24,16 20,15 C23,14 24,12 24,9 Z M13,10 L16,10 C18,10 19,11 19,13 C19,15 18,16 16,16 L13,16 Z M13,20 L17,20 C19,20 21,21 21,24 C21,27 19,27 17,27 L13,27 Z"/>
    </g>
    
    <!-- Bitay text as paths -->
    <g transform="translate(80, 33)" fill="white">
      <!-- B -->
      <path d="M0,0 L0,25 L10,25 C16,25 18,21 18,17 C18,14 16,12 14,11 C16,10 17,8 17,5 C17,2 15,0 10,0 Z M7,4 L10,4 C11,4 12,5 12,7 C12,9 11,10 10,10 L7,10 Z M7,14 L10,14 C12,14 13,15 13,17 C13,19 12,21 10,21 L7,21 Z"/>
      
      <!-- i -->
      <rect x="23" y="0" width="6" height="25"/>
      
      <!-- t -->
      <path d="M35,0 L35,4 L32,4 L32,25 L38,25 L38,4 L43,4 L43,0 Z"/>
      
      <!-- a -->
      <path d="M48,7 C45,7 42,8 42,16 C42,24 45,25 48,25 C51,25 54,24 54,16 C54,8 51,7 48,7 Z M48,11 C49,11 50,12 50,16 C50,20 49,21 48,21 C47,21 46,20 46,16 C46,12 47,11 48,11 Z"/>
      
      <!-- y -->
      <path d="M60,7 L65,17 L70,7 L75,7 L65,26 L55,7 Z"/>
    </g>
  </g>
</svg> 