<?xml version="1.0" encoding="UTF-8" standalone="no"?>
<svg xmlns="http://www.w3.org/2000/svg" width="300" height="80" viewBox="0 0 300 80">
  <g>
    <!-- Orange square with B -->
    <rect x="20" y="15" width="50" height="50" fill="#FF6B00" rx="5" ry="5"/>
    <path d="M40 49.5c2.5 1 5.4 1 7.3 0 1.9-1 3.2-2.5 3.2-4.5 0-1.5-0.8-2.7-2.3-3.5 1-0.8 1.6-1.8 1.6-3.1 0-1.8-1.1-3.1-2.8-3.9-1.7-0.8-4-0.9-6.2-0.1v15.1zm6.4-8.5c1.1 0.3 1.9 0.9 1.9 1.9 0 1-0.8 1.7-1.9 2-1.1 0.3-2.4 0.3-3.4 0v-3.9c1 0 2.3 0 3.4 0zm-0.9-6.4c1 0.2 1.7 0.7 1.7 1.6 0 0.9-0.7 1.6-1.7 1.9-1 0.2-2.1 0.2-3 0v-3.5c0.9 0 2 0 3 0z" fill="white"/>

    <!-- Bitci text -->
    <g fill="#333333">
      <path d="M85 23h7v4h4.5c4.5 0 7.5 3 7.5 7.5 0 4.5-3 7.5-7.5 7.5h-4.5v8h-7V23zm11 11.5c0-1.1-0.9-2-2-2h-2v4h2c1.1 0 2-0.9 2-2z"/>
      <path d="M105 30h6v3h.1c.5-1.5 2.9-3.6 5.9-3.6 5 0 7 3.6 7 8.1V50h-6V39c0-1.7-0.3-3-2.5-3-2.1 0-3.5 1.5-3.5 3.4V50h-6V30z"/>
      <path d="M130 30h7v20h-7V30zm0-7h7v5h-7v-5z"/>
      <path d="M143 40c0-5.5 4.5-10 10.5-10 6 0 10.5 4.5 10.5 10 0 5.5-4.5 10-10.5 10-6 0-10.5-4.5-10.5-10zm6 0c0 2.5 1.8 4.5 4.5 4.5 2.8 0 4.5-2 4.5-4.5 0-2.5-1.8-4.5-4.5-4.5-2.8 0-4.5 2-4.5 4.5z"/>
      <path d="M170 30h6v3h.1c.5-1.5 2.9-3.6 5.9-3.6 5 0 7 3.6 7 8.1V50h-6V39c0-1.7-0.3-3-2.5-3-2.1 0-3.5 1.5-3.5 3.4V50h-6V30z"/>
    </g>
  </g>
</svg> 