<?xml version="1.0" encoding="UTF-8" standalone="no"?>
<svg xmlns="http://www.w3.org/2000/svg" width="300" height="80" viewBox="0 0 300 80">
  <g>
    <path d="M20 40 C20 31.7 26.7 25 35 25 C43.3 25 50 31.7 50 40 C50 48.3 43.3 55 35 55 C26.7 55 20 48.3 20 40 Z" fill="#19A5DA"/>
    <path d="M60 40 C60 31.7 66.7 25 75 25 C83.3 25 90 31.7 90 40 C90 48.3 83.3 55 75 55 C66.7 55 60 48.3 60 40 Z" fill="#19A5DA"/>
    <path d="M35 55 C43.3 55 50 48.3 50 40 L60 40 C60 48.3 53.3 55 45 55 L35 55 Z" fill="#19A5DA"/>
    <path d="M35 25 C43.3 25 50 31.7 50 40 L60 40 C60 31.7 53.3 25 45 25 L35 25 Z" fill="#19A5DA"/>
    
    <g fill="#333333">
      <path d="M100 35h8v-5h5v5h5v5h-5v15h-5V40h-8z"/>
      <path d="M120 30h5v5h.1c1-3 3.9-5.6 8-5.6 5.9 0 10 4.1 10 10v15h-5V40c0-3-2-6-5.5-6-3.4 0-6.5 2.5-6.5 6.5V55h-5V30z"/>
      <path d="M150 30h5v5h.1c1-3 3.9-5.6 8-5.6 3.8 0 7 2 8.5 5.5 1.5-3 4.5-5.5 9-5.5 5.9 0 10 4.1 10 10v15h-5V40c0-3-2-6-5.5-6-3.4 0-6.5 2.5-6.5 6.5V55h-5V40c0-3-2-6-5.5-6-3.4 0-6.5 2.5-6.5 6.5V55h-5V30z"/>
      <path d="M195 43c0-7 5-13 13-13 8 0 13 6 13 13 0 7-5 13-13 13-8 0-13-6-13-13zm5 0c0 4 3 8 8 8 5 0 8-4 8-8 0-4-3-8-8-8-5 0-8 4-8 8z"/>
      <path d="M225 30h5v5h.1c1-3 3.9-5.6 8-5.6 5.9 0 10 4.1 10 10v15h-5V40c0-3-2-6-5.5-6-3.4 0-6.5 2.5-6.5 6.5V55h-5V30z"/>
    </g>
  </g>
</svg> 