<?xml version="1.0" encoding="UTF-8" standalone="no"?>
<svg xmlns="http://www.w3.org/2000/svg" width="300" height="100" viewBox="0 0 300 100">
  <g fill="#0C36B5">
    <path d="M91.5 39.2h8.8c4.3 0 7.8 3.5 7.8 7.8v0c0 4.3-3.5 7.8-7.8 7.8h-8.8V39.2z"/>
    <path d="M118.5 39.2h8.8c4.3 0 7.8 3.5 7.8 7.8v0c0 4.3-3.5 7.8-7.8 7.8h-8.8V39.2z"/>
    <path d="M147 39.2c4.3 0 7.8 3.5 7.8 7.8v0c0 4.3-3.5 7.8-7.8 7.8s-7.8-3.5-7.8-7.8v0C139.2 42.7 142.7 39.2 147 39.2z"/>
    <path d="M173.5 54.8V39.2h17.5v3.3h-14v2.5h10.4v3h-10.4v3.6h14v3.3H173.5z"/>
    <path d="M206.4 39.2h3.5l11.3 15.6h-4.1l-2.4-3.3h-13.2l-2.4 3.3h-4L206.4 39.2zM209.8 48.2l-4.7-6.4l-4.7 6.4H209.8z"/>
    <path d="M233.2 47.5v7.3h-3.5V39.2h3.5v6.7l9.4-6.7h4.7l-10.1 7.2l10.6 8.4h-4.8L233.2 47.5z"/>
    <g transform="translate(10, -25)">
      <circle cx="23" cy="50" r="6"/>
      <circle cx="38" cy="50" r="6"/>
      <circle cx="53" cy="50" r="6"/>
      <circle cx="30" cy="65" r="6"/>
      <circle cx="45" cy="65" r="6"/>
      <circle cx="38" cy="80" r="6"/>
    </g>
  </g>
</svg> 