<?xml version="1.0" encoding="UTF-8" standalone="no"?>
<svg xmlns="http://www.w3.org/2000/svg" width="300" height="80" viewBox="0 0 300 80">
  <g>
    <!-- Green C -->
    <path d="M40 55c-8.3 0-15-6.7-15-15s6.7-15 15-15c6.2 0 11.5 3.8 13.8 9.1l-7.6 2.9c-1-2.5-3.5-4.3-6.2-4.3-3.7 0-6.8 3-6.8 6.8s3 6.8 6.8 6.8c2.7 0 5.2-1.7 6.2-4.3l7.6 2.9C52.5 51.2 47.2 55 40 55z" fill="#00C853"/>

    <!-- CoinTR text -->
    <g fill="#111111">
      <path d="M70 37c0-3.9 3.1-7 7-7h38v6H77c-0.6 0-1 0.4-1 1v6c0 0.6 0.4 1 1 1h25v6H77c-0.6 0-1 0.4-1 1v6c0 0.6 0.4 1 1 1h38v6H77c-3.9 0-7-3.1-7-7V37z"/>
      <path d="M120 30h6v6h-6v-6zm0 10h6v20h-6v-20z"/>
      <path d="M135 40h6v2.5h0.1c1.2-1.8 3.5-3 5.9-3 5 0 7 3.6 7 8.1V60h-6V49c0-1.7-0.3-3-2.5-3-2.1 0-3.5 1.5-3.5 3.4V60h-6V40z"/>
      <path d="M160 40h6v20h-6V40z"/>
      <path d="M173 40h6v2.7h0.1c1.1-1.8 3.1-3.2 6-3.2h2.9v6h-3.5c-3 0-4.5 2-4.5 4.5v10h-6V40z"/>
    </g>
  </g>
</svg> 