<?xml version="1.0" encoding="UTF-8" standalone="no"?>
<svg xmlns="http://www.w3.org/2000/svg" width="300" height="80" viewBox="0 0 300 80">
  <g>
    <!-- Blue background with rounded corners -->
    <rect x="20" y="15" width="260" height="50" fill="#0066CC" rx="8" ry="8"/>
    
    <!-- ICRYPEX text as paths -->
    <g fill="white" transform="translate(50, 33)">
      <!-- I -->
      <rect x="0" y="0" width="8" height="25"/>
      
      <!-- C -->
      <path d="M18,0 C14,0 10,2 10,12.5 C10,23 14,25 18,25 C22,25 24,22 24,20 L20,18 C20,19 19,21 18,21 C17,21 15,20 15,12.5 C15,5 17,4 18,4 C19,4 20,5 20,7 L24,5 C24,2 22,0 18,0 Z"/>
      
      <!-- R -->
      <path d="M30,0 L30,25 L38,25 L38,15 L40,15 L43,25 L51,25 L47,14 C49,12 50,11 50,8 C50,3 47,0 42,0 Z M38,4 L42,4 C43,4 44,5 44,8 C44,11 43,12 42,12 L38,12 Z"/>
      
      <!-- Y -->
      <path d="M57,0 L62,10 L67,0 L75,0 L65,17 L65,25 L57,25 L57,17 L47,0 Z"/>
      
      <!-- P -->
      <path d="M80,0 L80,25 L88,25 L88,15 L92,15 C97,15 100,12 100,7 C100,2 97,0 92,0 Z M88,4 L92,4 C93,4 94,5 94,7 C94,9 93,10 92,10 L88,10 Z"/>
      
      <!-- E -->
      <path d="M105,0 L105,25 L123,25 L123,21 L113,21 L113,15 L120,15 L120,11 L113,11 L113,4 L123,4 L123,0 Z"/>
      
      <!-- X -->
      <path d="M128,0 L136,10 L144,0 L154,0 L141,13 L155,25 L145,25 L136,14 L127,25 L117,25 L131,13 L118,0 Z"/>
    </g>
  </g>
</svg> 