<?xml version="1.0" encoding="UTF-8" standalone="no"?>
<svg xmlns="http://www.w3.org/2000/svg" width="300" height="100" viewBox="0 0 300 100">
  <rect width="300" height="100" fill="#9FC612" rx="10" ry="10"/>
  <g fill="white">
    <path d="M52 32h15c6.6 0 12 5.4 12 12s-5.4 12-12 12h-9v12H52V32zm15 18c3.3 0 6-2.7 6-6s-2.7-6-6-6h-9v12h9z"/>
    <path d="M90 32h6v24h15v6H90V32z"/>
    <path d="M120 32h15c6.6 0 12 5.4 12 12v24h-6V44c0-3.3-2.7-6-6-6h-9v30h-6V32z"/>
    <path d="M155 32h6v36h-6V32z"/>
    <path d="M170 32h15c6.6 0 12 5.4 12 12s-5.4 12-12 12h-9v12h-6V32zm15 18c3.3 0 6-2.7 6-6s-2.7-6-6-6h-9v12h9z"/>
    <path d="M205 32h6v24c0 3.3 2.7 6 6 6h9c3.3 0 6-2.7 6-6V32h6v24c0 6.6-5.4 12-12 12h-9c-6.6 0-12-5.4-12-12V32z"/>
  </g>
</svg> 